Coordinates
version=1
nRows=28
nColumns=33
inDegrees=yes

Units are S.I. units (second, meters, Newtons, ...)
Angles are in degrees.

endheader
time	ground_thorax_rot_x	ground_thorax_rot_y	ground_thorax_rot_z	ground_thorax_tx	ground_thorax_ty	ground_thorax_tz	clav_prot_r	clav_elev_r	scapula_abduction_r	scapula_elevation_r	scapula_upward_rot_r	scapula_winging_r	shoulder_elv_r	plane_of_elev_r	axial_rot_r	elbow_flexion_r	pro_sup_r	wrist_flex_r	wrist_dev_r	clav_prot_l	clav_elev_l	scapula_abduction_l	scapula_elevation_l	scapula_upward_rot_l	scapula_winging_l	shoulder_elv_l	plane_of_elev_l	axial_rot_l	elbow_flexion_l	pro_sup_l	wrist_flex_l	wrist_dev_l	
2.2100	38.927395	11.508110	15.690500	-118.941059	785.168033	7.746374	13.629614	41.896772	44.371487	42.022637	-16.537301	-5491.871965	-2100.492820	29.763822	57.736747	2891.058659	19.465282	18.552096	10.937584	6.088865	-45.000000	-39.659101	45.000000	-40.629098	806.995080	-2254.878681	134.068831	-180.000000	-351.406929	37.020370	8.415159	-20.757543	
2.2200	38.999891	11.853116	16.117419	-121.135018	786.328221	7.597234	13.910259	42.085914	44.040106	42.512625	-17.564480	-5491.463239	-2100.280875	29.969079	57.181438	2891.127458	18.956694	18.576110	10.895054	6.138126	-45.000000	-39.222857	45.000000	-41.668345	807.074121	-2254.616333	134.007896	-180.000000	-351.309644	36.826294	8.395929	-20.796036	
2.2300	39.073309	12.180201	16.491755	-123.348569	787.519179	7.450156	14.147673	42.305943	43.690432	42.996881	-18.559378	-5491.054094	-2100.062364	30.187470	56.606485	2891.196924	18.452181	18.600327	10.854786	6.215430	-45.000000	-38.846329	45.000000	-42.619764	807.153487	-2254.366647	133.961140	-180.000000	-351.211324	36.631928	8.381331	-20.835529	
2.2400	39.144476	12.502745	16.840632	-125.569783	788.735841	7.309258	14.363342	42.532879	43.327552	43.472161	-19.536605	-5490.646922	-2099.842611	30.418303	55.989804	2891.253035	17.971385	18.624080	10.815849	6.298804	-45.000000	-38.498668	45.000000	-43.508566	807.236484	-2254.126327	133.925900	-180.000000	-351.120524	36.438431	8.370477	-20.875314	
2.2500	39.205860	12.731136	17.054020	-127.790597	789.974965	7.176763	14.474461	42.703303	43.013011	43.872621	-20.317822	-5490.322418	-2099.631003	30.634563	55.377268	2891.293902	17.579043	18.652200	10.789660	6.360300	-45.000000	-38.277443	45.000000	-44.069640	807.363227	-2253.952267	133.930890	-180.000000	-351.039658	36.263302	8.363251	-20.921053	
2.2600	39.256826	12.900327	17.194364	-130.010613	791.235947	7.051653	14.530849	42.799729	42.748102	44.208397	-20.956560	-5490.070287	-2099.427270	30.830826	54.778220	2891.316376	17.276434	18.684933	10.761484	6.404187	-45.000000	-38.119875	45.000000	-44.440247	807.535414	-2253.812884	133.946983	-180.000000	-350.968475	36.104804	8.357115	-20.972159	
2.2700	39.302522	12.987904	17.231743	-132.235193	792.520657	6.930721	14.527030	42.853387	42.543061	44.467752	-21.400362	-5489.910650	-2099.230009	30.994689	54.224693	2891.331153	17.064884	18.723965	10.736523	6.437898	-45.000000	-38.041316	45.000000	-44.611260	807.741747	-2253.702231	133.976062	-180.000000	-350.890837	35.964486	8.345671	-21.028213	
2.2800	39.345080	13.043463	17.238448	-134.472227	793.831585	6.809913	14.525124	42.877727	42.379515	44.679853	-21.759000	-5489.804026	-2099.038922	31.132554	53.702476	2891.337349	16.893855	18.764727	10.703551	6.475278	-45.000000	-37.969188	45.000000	-44.756696	807.966218	-2253.577382	133.985926	-180.000000	-350.812181	35.831107	8.329379	-21.084704	
2.2900	39.381990	13.054471	17.193674	-136.727897	795.170586	6.686172	14.503419	42.874499	42.258632	44.832995	-22.019822	-5489.756996	-2098.843416	31.247474	53.236403	2891.347028	16.744983	18.807572	10.667582	6.522697	-45.000000	-37.929641	45.000000	-44.849007	808.207575	-2253.438878	133.982945	-180.000000	-350.725075	35.704490	8.306601	-21.142708	
2.3000	39.411829	13.029732	17.111369	-139.005266	796.537956	6.557881	14.467113	42.835063	42.183239	44.929389	-22.195337	-5489.768994	-2098.645673	31.335598	52.853372	2891.361938	16.594832	18.850539	10.621269	6.584164	-45.000000	-37.907937	45.000000	-44.923905	808.467352	-2253.275684	133.954388	-180.000000	-350.635452	35.583556	8.278889	-21.201247	
2.3100	39.436550	12.979230	16.997700	-141.303149	797.932303	6.425118	14.416220	42.801497	42.127107	44.982811	-22.301106	-5489.820859	-2098.439586	31.407968	52.543257	2891.385222	16.427642	18.892116	10.574631	6.654769	-45.000000	-37.909132	45.000000	-44.980751	808.724197	-2253.098240	133.926891	-180.000000	-350.538786	35.465387	8.243367	-21.259025	
2.3200	39.456102	12.894512	16.843768	-143.617134	799.350851	6.288965	14.346407	42.756213	42.094719	44.997080	-22.342854	-5489.909074	-2098.234434	31.467898	52.285974	2891.410845	16.238658	18.930710	10.528363	6.720274	-45.000000	-37.940339	45.000000	-44.968587	808.986605	-2252.925295	133.905716	-180.000000	-350.446169	35.350733	8.206629	-21.317643	
2.3300	39.472271	12.805746	16.686249	-145.941455	800.790212	6.150732	14.273320	42.739519	42.050730	45.000000	-22.378680	-5489.994888	-2098.022486	31.532069	52.051794	2891.436693	16.027016	18.965832	10.484012	6.777085	-45.000000	-37.982508	45.000000	-44.935165	809.234392	-2252.760141	133.909489	-180.000000	-350.358300	35.237900	8.169771	-21.377699	
2.3400	39.489366	12.714216	16.528336	-148.270752	802.247105	6.011313	14.199254	42.721351	42.006011	45.000000	-22.416752	-5490.081754	-2097.810469	31.595806	51.841901	2891.464903	15.799202	18.999336	10.436461	6.831991	-45.000000	-38.024259	45.000000	-44.907771	809.479816	-2252.596512	133.915558	-180.000000	-350.270594	35.126124	8.131194	-21.439783	
2.3500	39.511655	12.617652	16.363217	-150.600389	803.718472	5.871276	14.120652	42.732641	41.953211	45.000000	-22.435073	-5490.169288	-2097.600595	31.655239	51.661919	2891.494722	15.563384	19.030827	10.388029	6.889319	-45.000000	-38.069755	45.000000	-44.884002	809.710785	-2252.435674	133.931654	-180.000000	-350.181405	35.016268	8.087679	-21.501546	
2.3600	39.536748	12.522047	16.200102	-152.926341	805.201371	5.731157	14.043388	42.723762	41.905324	45.000000	-22.458201	-5490.261616	-2097.393791	31.709354	51.505460	2891.528809	15.322753	19.062235	10.336003	6.949618	-45.000000	-38.110815	45.000000	-44.886741	809.944284	-2252.270161	133.936948	-180.000000	-350.088248	34.906548	8.040314	-21.565117	
2.3700	39.562891	12.424899	16.034420	-155.245289	806.693053	5.591636	13.965501	42.730143	41.851896	45.000000	-22.477319	-5490.349950	-2097.190914	31.759877	51.363259	2891.561680	15.082311	19.092310	10.284485	7.005713	-45.000000	-38.157995	45.000000	-44.881101	810.166033	-2252.111812	133.955259	-180.000000	-350.001212	34.799825	7.992175	-21.629991	
2.3800	39.589060	12.330808	15.880411	-157.554305	808.190765	5.453567	13.891737	42.690472	41.806332	45.000000	-22.523571	-5490.439572	-2096.992789	31.812034	51.233637	2891.594922	14.840911	19.121814	10.226710	7.066389	-45.000000	-38.194694	45.000000	-44.900439	810.400094	-2251.953282	133.957944	-180.000000	-349.913756	34.693749	7.938891	-21.696621	
2.3900	39.617301	12.232920	15.726111	-159.851133	809.692002	5.317880	13.819628	42.642320	41.761222	45.000000	-22.576235	-5490.526449	-2096.798385	31.864486	51.110947	2891.627962	14.600286	19.150920	10.167684	7.126323	-45.000000	-38.231146	45.000000	-44.917695	810.634301	-2251.801049	133.961164	-180.000000	-349.826964	34.592856	7.882582	-21.765884	
2.4000	39.649190	12.129508	15.570452	-162.133650	811.194216	5.185439	13.749686	42.572051	41.720944	45.000000	-22.635874	-5490.614731	-2096.608534	31.916233	50.999877	2891.664689	14.360627	19.180867	10.105383	7.190019	-45.000000	-38.260959	45.000000	-44.945985	810.875501	-2251.649590	133.951627	-180.000000	-349.734115	34.500907	7.820632	-21.838274	
2.4100	39.684604	12.015563	15.402081	-164.399987	812.694920	5.056870	13.677530	42.527967	41.676238	45.000000	-22.675617	-5490.700266	-2096.425686	31.962413	50.902154	2891.702202	14.124816	19.211187	10.045148	7.250080	-45.000000	-38.296672	45.000000	-44.952828	811.105464	-2251.506663	133.953065	-180.000000	-349.641336	34.426670	7.756075	-21.913874	
2.4200	39.720787	11.900272	15.238200	-166.648068	814.191313	4.932444	13.608519	42.456965	41.636170	45.000000	-22.730704	-5490.785531	-2096.250379	32.007969	50.816895	2891.740774	13.888859	19.242040	9.981206	7.313392	-45.000000	-38.323026	45.000000	-44.971489	811.341864	-2251.365977	133.943768	-180.000000	-349.546232	34.371944	7.685358	-21.992321	
2.4300	39.759706	11.781814	15.069040	-168.876115	815.680453	4.812009	13.539978	42.396769	41.592864	45.000000	-22.782024	-5490.866870	-2096.080812	32.049280	50.740777	2891.779954	13.653063	19.273431	9.919272	7.373679	-45.000000	-38.354353	45.000000	-44.987041	811.569205	-2251.231304	133.941960	-180.000000	-349.449965	34.342891	7.611696	-22.074267	
2.4400	39.800947	11.661610	14.895608	-171.082362	817.158908	4.695035	13.471199	42.347174	41.547255	45.000000	-22.829015	-5490.945218	-2095.920385	32.084277	50.673323	2891.816667	13.417319	19.304600	9.857354	7.429302	-45.000000	-38.390729	45.000000	-45.000000	811.786596	-2251.103826	133.947900	-180.000000	-349.355225	34.342512	7.535638	-22.159142	
2.4500	39.843479	11.538104	14.715321	-173.265518	818.622945	4.580695	13.400167	42.318772	41.499147	45.000000	-22.862465	-5491.020573	-2095.772730	32.110412	50.614186	2891.848382	13.182751	19.334813	9.795285	7.477032	-45.000000	-38.438761	45.000000	-45.000000	811.990167	-2250.987954	133.970107	-180.000000	-349.265676	34.373930	7.459664	-22.246762	
2.4600	39.885939	11.413210	14.537391	-175.424527	820.068407	4.468002	13.330123	42.274809	41.455191	45.000000	-22.905939	-5491.093920	-2095.636000	32.135215	50.561480	2891.874965	12.947427	19.363622	9.727715	7.522785	-45.000000	-38.485226	45.000000	-45.000000	812.195077	-2250.880846	133.991928	-180.000000	-349.181259	34.435079	7.381306	-22.335235	
2.4700	39.929251	11.285540	14.359153	-177.558843	821.491096	4.355916	13.261882	42.220915	41.412104	45.000000	-22.958098	-5491.163112	-2095.505891	32.160611	50.512450	2891.899105	12.711802	19.391147	9.656322	7.569621	-45.000000	-38.530195	45.000000	-45.000000	812.400961	-2250.781619	134.012832	-180.000000	-349.099507	34.526919	7.301657	-22.423821	
2.4800	39.972516	11.156437	14.181976	-179.667909	822.886766	4.243446	13.196428	42.154863	41.368586	45.000000	-23.022635	-5491.227649	-2095.379698	32.188368	50.465154	2891.922212	12.477107	19.417351	9.580881	7.619043	-45.000000	-38.569035	45.000000	-45.000000	812.609769	-2250.688592	134.030052	-180.000000	-349.019655	34.649361	7.220682	-22.511479	
